<svg xmlns="http://www.w3.org/2000/svg" viewBox="0 0 800 520" role="img" aria-labelledby="cm-title">
  <title id="cm-title">Neon circuit target abstract artwork</title>
  <defs>
    <linearGradient id="cm-bg" x1="0" y1="0" x2="1" y2="1"><stop stop-color="#020617"/><stop offset=".55" stop-color="#172033"/><stop offset="1" stop-color="#164e63"/></linearGradient>
    <linearGradient id="cm-neon" x1="0" y1="0" x2="1" y2="1"><stop stop-color="#bef264"/><stop offset=".5" stop-color="#22d3ee"/><stop offset="1" stop-color="#a3e635"/></linearGradient>
    <radialGradient id="cm-pulse"><stop stop-color="#22d3ee" stop-opacity=".42"/><stop offset="1" stop-color="#22d3ee" stop-opacity="0"/></radialGradient>
    <filter id="cm-glow"><feGaussianBlur stdDeviation="9"/></filter>
  </defs>
  <rect width="800" height="520" rx="32" fill="url(#cm-bg)"/>
  <circle cx="440" cy="258" r="232" fill="url(#cm-pulse)"/>
  <g fill="none" stroke="#67e8f9" stroke-width="3" opacity=".38">
    <path d="M0 117h133l38 38h116"/><path d="M0 406h162l53-53h75"/><path d="M800 91H679l-46 46h-89"/>
    <path d="M800 421H653l-37-37h-87"/><path d="M88 0v65l34 34"/><path d="M714 520v-66l-32-32"/>
  </g>
  <g fill="#a3e635"><circle cx="133" cy="117" r="7"/><circle cx="162" cy="406" r="7"/><circle cx="679" cy="91" r="7"/><circle cx="653" cy="421" r="7"/></g>
  <g transform="translate(438 258)" fill="none">
    <circle r="157" stroke="#22d3ee" stroke-width="22" opacity=".18" filter="url(#cm-glow)"/>
    <circle r="157" stroke="url(#cm-neon)" stroke-width="4" stroke-dasharray="58 18"/>
    <circle r="108" stroke="#67e8f9" stroke-width="3" opacity=".7"/>
    <circle r="48" stroke="#bef264" stroke-width="8"/>
    <path d="M-190 0h94M96 0h94M0-190v94M0 96v94" stroke="#ecfccb" stroke-width="5" stroke-linecap="round"/>
    <path d="m-23-23 46 46m0-46-46 46" stroke="#ecfccb" stroke-width="4" stroke-linecap="round"/>
  </g>
  <g fill="#d9f99d" opacity=".78"><path d="m85 205 12 7v14l-12 7-12-7v-14Z"/><path d="m708 287 12 7v14l-12 7-12-7v-14Z"/></g>
</svg>
