<svg xmlns="http://www.w3.org/2000/svg" viewBox="0 0 800 520" role="img" aria-labelledby="fallback-title">
  <title id="fallback-title">Abstract game cover placeholder</title>
  <defs>
    <linearGradient id="fallback-bg" x1="0" y1="0" x2="1" y2="1">
      <stop stop-color="#172554"/>
      <stop offset="0.55" stop-color="#312e81"/>
      <stop offset="1" stop-color="#0f172a"/>
    </linearGradient>
    <radialGradient id="fallback-glow" cx="50%" cy="45%" r="55%">
      <stop stop-color="#818cf8" stop-opacity=".72"/>
      <stop offset="1" stop-color="#818cf8" stop-opacity="0"/>
    </radialGradient>
  </defs>
  <rect width="800" height="520" rx="32" fill="url(#fallback-bg)"/>
  <circle cx="400" cy="245" r="220" fill="url(#fallback-glow)"/>
  <g fill="none" stroke="#c7d2fe" stroke-width="8" stroke-linecap="round" stroke-linejoin="round">
    <path d="M295 206h210c44 0 68 39 80 98l10 50c7 34-33 56-58 31l-64-63H327l-64 63c-25 25-65 3-58-31l10-50c12-59 36-98 80-98Z"/>
    <path d="M288 270h74M325 233v74"/>
    <circle cx="491" cy="260" r="12" fill="#c7d2fe" stroke="none"/>
    <circle cx="531" cy="292" r="12" fill="#c7d2fe" stroke="none"/>
  </g>
  <g fill="#a5b4fc" opacity=".55">
    <circle cx="114" cy="104" r="5"/><circle cx="686" cy="91" r="7"/><circle cx="653" cy="424" r="4"/>
    <path d="M104 398 124 363l20 35Z"/><path d="m674 157 18 18-18 18-18-18Z"/>
  </g>
</svg>
