<svg xmlns="http://www.w3.org/2000/svg" viewBox="0 0 800 520" role="img" aria-labelledby="gi-title">
  <title id="gi-title">Floating sky garden abstract artwork</title>
  <defs>
    <linearGradient id="gi-sky" x1="0" y1="0" x2="0" y2="1"><stop stop-color="#4338ca"/><stop offset=".48" stop-color="#7dd3fc"/><stop offset="1" stop-color="#ecfeff"/></linearGradient>
    <linearGradient id="gi-island" x1="0" y1="0" x2="0" y2="1"><stop stop-color="#d9f99d"/><stop offset=".2" stop-color="#65a30d"/><stop offset=".23" stop-color="#475569"/><stop offset="1" stop-color="#1e293b"/></linearGradient>
    <radialGradient id="gi-light"><stop stop-color="#fff" stop-opacity=".9"/><stop offset="1" stop-color="#fff" stop-opacity="0"/></radialGradient>
    <filter id="gi-soft"><feGaussianBlur stdDeviation="13"/></filter>
  </defs>
  <rect width="800" height="520" rx="32" fill="url(#gi-sky)"/>
  <circle cx="616" cy="111" r="113" fill="url(#gi-light)"/>
  <g fill="#fff" opacity=".7" filter="url(#gi-soft)"><ellipse cx="160" cy="125" rx="115" ry="24"/><ellipse cx="568" cy="318" rx="150" ry="28"/></g>
  <path d="M171 246c62-38 156-36 224 2l-45 29-44 147-53-95-62-39Z" fill="url(#gi-island)"/>
  <path d="M481 168c42-25 104-25 146 1l-31 21-31 102-37-65-42-26Z" fill="url(#gi-island)" opacity=".88"/>
  <path d="M68 354c40-23 99-24 139 1l-28 19-29 90-33-57-40-24Z" fill="url(#gi-island)" opacity=".8"/>
  <g fill="none" stroke="#f0fdfa" stroke-width="4" stroke-linecap="round" opacity=".75">
    <path d="M319 196c31-69 83-92 143-74"/><path d="m452 109 15 14-19 9"/>
    <path d="M384 337c54 47 112 55 169 24"/><path d="m546 350 15 8-8 16"/>
  </g>
  <g fill="#fefce8"><circle cx="107" cy="101" r="4"/><circle cx="264" cy="84" r="7"/><circle cx="690" cy="259" r="5"/><circle cx="424" cy="188" r="4"/></g>
  <path d="m363 152 9 19 21 3-15 14 3 21-18-10-19 10 4-21-16-14 22-3Z" fill="#fef9c3" opacity=".9"/>
</svg>
