<svg xmlns="http://www.w3.org/2000/svg" viewBox="0 0 800 520" role="img" aria-labelledby="ml-title">
  <title id="ml-title">Electric arena abstract artwork</title>
  <defs>
    <linearGradient id="ml-bg" x1="0" y1="0" x2="1" y2="1">
      <stop stop-color="#071a3d"/><stop offset=".48" stop-color="#173b88"/><stop offset="1" stop-color="#4f1d78"/>
    </linearGradient>
    <linearGradient id="ml-beam" x1="0" y1="1" x2="1" y2="0">
      <stop stop-color="#22d3ee" stop-opacity="0"/><stop offset=".5" stop-color="#67e8f9"/><stop offset="1" stop-color="#f59e0b" stop-opacity=".2"/>
    </linearGradient>
    <radialGradient id="ml-core"><stop stop-color="#fff"/><stop offset=".25" stop-color="#67e8f9"/><stop offset="1" stop-color="#2563eb" stop-opacity="0"/></radialGradient>
    <filter id="ml-blur"><feGaussianBlur stdDeviation="18"/></filter>
  </defs>
  <rect width="800" height="520" rx="32" fill="url(#ml-bg)"/>
  <path d="M0 424 215 142l153 188L565 54l235 294v172H0Z" fill="#07162f" opacity=".48"/>
  <path d="m38 430 205-252 126 156L568 89l198 246" fill="none" stroke="url(#ml-beam)" stroke-width="9" opacity=".7"/>
  <ellipse cx="422" cy="266" rx="210" ry="76" fill="#22d3ee" opacity=".12" filter="url(#ml-blur)"/>
  <g transform="translate(412 260)">
    <circle r="106" fill="none" stroke="#93c5fd" stroke-width="3" stroke-dasharray="9 13" opacity=".65"/>
    <circle r="73" fill="none" stroke="#67e8f9" stroke-width="13" stroke-dasharray="115 44" transform="rotate(-34)"/>
    <circle r="42" fill="url(#ml-core)"/>
    <path d="M-130 0h55M75 0h55M0-130v55M0 75v55" stroke="#bfdbfe" stroke-width="4" stroke-linecap="round"/>
  </g>
  <g fill="#fff" opacity=".62">
    <circle cx="90" cy="87" r="4"/><circle cx="165" cy="76" r="2"/><circle cx="678" cy="112" r="4"/><circle cx="706" cy="219" r="2"/>
  </g>
  <path d="M65 453h184M550 453h185" stroke="#38bdf8" stroke-width="3" stroke-linecap="round" opacity=".45"/>
</svg>
