<svg xmlns="http://www.w3.org/2000/svg" viewBox="0 0 800 520" role="img" aria-labelledby="rb-title">
  <title id="rb-title">Colorful building blocks abstract artwork</title>
  <defs>
    <linearGradient id="rb-bg" x1="0" y1="0" x2="1" y2="1"><stop stop-color="#0e7490"/><stop offset=".5" stop-color="#2563eb"/><stop offset="1" stop-color="#7c3aed"/></linearGradient>
    <linearGradient id="rb-coral" x1="0" y1="0" x2="1" y2="1"><stop stop-color="#fda4af"/><stop offset="1" stop-color="#f43f5e"/></linearGradient>
    <linearGradient id="rb-yellow" x1="0" y1="0" x2="1" y2="1"><stop stop-color="#fef08a"/><stop offset="1" stop-color="#f59e0b"/></linearGradient>
    <linearGradient id="rb-mint" x1="0" y1="0" x2="1" y2="1"><stop stop-color="#99f6e4"/><stop offset="1" stop-color="#14b8a6"/></linearGradient>
    <filter id="rb-shadow" x="-30%" y="-30%" width="160%" height="180%"><feDropShadow dx="0" dy="17" stdDeviation="10" flood-color="#172554" flood-opacity=".35"/></filter>
  </defs>
  <rect width="800" height="520" rx="32" fill="url(#rb-bg)"/>
  <g opacity=".14" fill="none" stroke="#fff" stroke-width="2"><path d="M0 104h800M0 208h800M0 312h800M0 416h800"/><path d="M100 0v520M200 0v520M300 0v520M400 0v520M500 0v520M600 0v520M700 0v520"/></g>
  <g filter="url(#rb-shadow)">
    <g transform="translate(126 159)"><path d="m0 48 84-48 84 48-84 49Z" fill="#fecdd3"/><path d="m0 48 84 49v98L0 146Z" fill="#fb7185"/><path d="m168 48-84 49v98l84-49Z" fill="url(#rb-coral)"/></g>
    <g transform="translate(317 78)"><path d="m0 48 84-48 84 48-84 49Z" fill="#fef9c3"/><path d="m0 48 84 49v98L0 146Z" fill="#fbbf24"/><path d="m168 48-84 49v98l84-49Z" fill="url(#rb-yellow)"/></g>
    <g transform="translate(505 196)"><path d="m0 48 84-48 84 48-84 49Z" fill="#ccfbf1"/><path d="m0 48 84 49v98L0 146Z" fill="#2dd4bf"/><path d="m168 48-84 49v98l84-49Z" fill="url(#rb-mint)"/></g>
  </g>
  <g fill="#fff" opacity=".8"><circle cx="92" cy="91" r="7"/><circle cx="684" cy="96" r="5"/><circle cx="717" cy="413" r="8"/></g>
  <path d="M80 449h184M536 449h184" stroke="#bfdbfe" stroke-width="4" stroke-linecap="round" opacity=".65"/>
</svg>
